<mxfile host="app.diagrams.net" modified="2022-05-13T06:43:00.075Z" agent="5.0 (Windows NT 10.0; Win64; x64) AppleWebKit/537.36 (KHTML, like Gecko) Chrome/100.0.4896.127 Safari/537.36 Edg/100.0.1185.50" etag="CV_h1eOPBP2LVxOepY36" version="18.0.3" type="github">
  <diagram id="lNA8hBHamzXeybTxWqr1" name="Page-1">
    <mxGraphModel dx="1209" dy="671" grid="0" gridSize="10" guides="1" tooltips="1" connect="1" arrows="1" fold="1" page="1" pageScale="1" pageWidth="827" pageHeight="1169" math="0" shadow="0">
      <root>
        <mxCell id="0" />
        <mxCell id="1" parent="0" />
        <mxCell id="O3FHj6Zzt8mlvBoneF4n-3" value="" style="rounded=0;whiteSpace=wrap;html=1;fontSize=14;" vertex="1" parent="1">
          <mxGeometry x="200" y="190" width="520" height="280" as="geometry" />
        </mxCell>
        <mxCell id="O3FHj6Zzt8mlvBoneF4n-1" value="&lt;font style=&quot;font-size: 14px;&quot;&gt;&lt;b&gt;生产厂家&lt;br&gt;&lt;/b&gt;&lt;br&gt;生产成本&lt;br&gt;生产数量&lt;br&gt;清洗维修量&lt;br&gt;清洗成本&lt;br&gt;报废量&lt;br&gt;报废成本&lt;br&gt;&lt;b&gt;……&lt;/b&gt;&lt;/font&gt;" style="ellipse;whiteSpace=wrap;html=1;aspect=fixed;" vertex="1" parent="1">
          <mxGeometry x="250" y="240" width="180" height="180" as="geometry" />
        </mxCell>
        <mxCell id="O3FHj6Zzt8mlvBoneF4n-2" value="&lt;font style=&quot;font-size: 14px;&quot;&gt;&lt;b&gt;快递企业&lt;br&gt;&lt;/b&gt;&lt;br&gt;订单数量&lt;br&gt;碳减排补贴&lt;br&gt;租赁成本&lt;br&gt;回收努力成本&lt;br&gt;回收量&lt;br&gt;&lt;b&gt;……&lt;/b&gt;&lt;/font&gt;" style="ellipse;whiteSpace=wrap;html=1;aspect=fixed;" vertex="1" parent="1">
          <mxGeometry x="480" y="240" width="180" height="180" as="geometry" />
        </mxCell>
      </root>
    </mxGraphModel>
  </diagram>
</mxfile>
